<?xml version="1.0" standalone="no"?>
<!DOCTYPE svg PUBLIC "-//W3C//DTD SVG 20010904//EN"
 "http://www.w3.org/TR/2001/REC-SVG-20010904/DTD/svg10.dtd">
<svg version="1.0" xmlns="http://www.w3.org/2000/svg"
 width="5315.000000pt" height="5315.000000pt" viewBox="0 0 5315.000000 5315.000000"
 preserveAspectRatio="xMidYMid meet">

<g transform="translate(0.000000,5315.000000) scale(0.100000,-0.100000)"
fill="#000000" stroke="none">
<path d="M25820 52329 c-724 -19 -1531 -81 -2410 -183 -300 -36 -787 -107
-1165 -171 -2990 -507 -5869 -1541 -8490 -3050 -276 -160 -817 -486 -975 -590
-19 -13 -87 -56 -150 -97 -1197 -774 -2273 -1601 -3355 -2577 -88 -80 -191
-175 -230 -211 -332 -315 -493 -471 -765 -747 -383 -386 -529 -540 -780 -818
-1484 -1642 -2706 -3386 -3725 -5315 -102 -192 -419 -828 -492 -985 -23 -49
-65 -139 -93 -200 -74 -157 -238 -525 -325 -730 -589 -1378 -1082 -2909 -1413
-4385 -135 -601 -277 -1351 -341 -1810 -6 -41 -20 -136 -31 -210 -43 -297 -61
-440 -99 -785 -53 -476 -57 -524 -86 -915 -86 -1171 -98 -2199 -40 -3315 19
-362 68 -1009 95 -1260 44 -414 81 -720 110 -920 17 -115 35 -246 41 -290 33
-264 156 -957 250 -1410 668 -3223 1924 -6243 3734 -8975 1182 -1784 2544
-3375 4145 -4840 1649 -1510 3597 -2864 5575 -3876 301 -154 665 -334 810
-401 50 -23 135 -62 190 -88 155 -72 498 -224 720 -318 1821 -775 3775 -1346
5740 -1677 763 -129 1601 -230 2345 -285 1492 -109 2719 -102 4265 25 287 24
942 98 1230 140 116 17 261 37 323 45 157 21 723 117 977 166 588 113 1176
247 1780 404 574 149 1409 407 1990 615 110 39 236 84 280 100 328 116 976
376 1385 555 475 208 721 323 1232 577 2084 1035 4025 2363 5813 3977 166 150
182 166 480 448 411 390 992 989 1394 1437 1407 1566 2609 3292 3623 5201 183
344 545 1088 714 1465 151 340 378 879 481 1145 264 683 535 1473 698 2035
317 1088 519 1956 695 2985 104 612 174 1131 255 1910 13 127 66 859 80 1110
8 154 20 440 25 635 77 2821 -309 5648 -1136 8325 -128 414 -379 1150 -494
1445 -16 41 -63 163 -104 270 -66 171 -107 274 -251 625 -177 432 -454 1032
-737 1595 -797 1591 -1761 3095 -2893 4517 -442 554 -970 1159 -1464 1678
-121 127 -790 796 -936 936 -464 444 -1122 1018 -1668 1453 -1909 1522 -3981
2746 -6217 3674 -239 99 -357 146 -515 207 -82 31 -195 74 -250 95 -302 116
-770 280 -1150 403 -2066 668 -4216 1072 -6405 1201 -727 43 -1530 56 -2290
35z m1448 -549 c1221 -36 2319 -141 3482 -335 2672 -445 5214 -1305 7615
-2575 1780 -942 3450 -2102 4970 -3455 712 -633 1447 -1368 2080 -2080 1846
-2075 3330 -4423 4402 -6965 1076 -2549 1726 -5282 1913 -8045 178 -2638 -44
-5219 -670 -7790 -295 -1209 -730 -2527 -1215 -3680 -37 -88 -78 -185 -90
-215 -243 -582 -725 -1566 -1098 -2240 -1154 -2085 -2578 -3974 -4266 -5660
-870 -869 -1738 -1622 -2707 -2348 -781 -585 -1487 -1054 -2389 -1587 -1710
-1010 -3693 -1866 -5630 -2428 -646 -188 -1387 -374 -1855 -467 -52 -10 -160
-32 -240 -49 -322 -67 -1085 -199 -1363 -236 -62 -8 -229 -30 -372 -49 -143
-20 -372 -47 -510 -61 -137 -14 -313 -32 -390 -40 -192 -20 -611 -53 -775 -60
-74 -4 -256 -13 -405 -22 -573 -32 -1849 -28 -2460 7 -88 5 -221 12 -295 15
-184 8 -585 40 -875 70 -132 14 -269 27 -305 31 -67 6 -455 54 -795 98 -104
14 -271 39 -370 55 -99 17 -211 35 -250 41 -256 38 -986 181 -1340 261 -757
173 -1324 324 -1970 527 -132 41 -280 87 -330 102 -273 84 -951 328 -1400 503
-397 155 -975 403 -1360 582 -55 26 -116 54 -135 62 -19 9 -183 89 -365 178
-1892 926 -3611 2052 -5245 3435 -797 675 -1666 1519 -2397 2330 -1338 1484
-2499 3122 -3437 4849 -190 350 -213 394 -410 787 -736 1473 -1318 2992 -1746
4554 -601 2194 -900 4420 -900 6700 0 891 44 1738 136 2625 254 2453 855 4817
1806 7093 375 900 865 1897 1356 2757 1506 2644 3505 5017 5867 6970 1780
1471 3732 2678 5860 3622 105 47 215 95 245 108 30 12 127 53 215 90 2475
1041 5210 1692 7905 1879 850 59 1725 79 2508 56z"/>
<path d="M37035 47930 c-444 -34 -813 -177 -1064 -415 -114 -108 -245 -295
-207 -295 22 0 21 -5 -13 -60 l-29 -47 37 -13 c44 -16 266 -234 471 -465 268
-299 295 -330 369 -410 40 -44 157 -163 260 -265 153 -152 194 -199 230 -262
64 -115 115 -271 192 -588 89 -369 118 -452 202 -578 36 -54 53 -69 117 -103
76 -40 159 -103 150 -113 -10 -10 -129 58 -180 102 -41 35 -62 45 -132 61 -46
11 -102 22 -124 25 -41 6 -42 5 -57 -32 l-15 -37 114 -15 c62 -9 115 -18 118
-21 2 -2 -70 -31 -162 -63 -146 -51 -173 -64 -215 -103 -26 -25 -85 -62 -130
-83 -76 -36 -142 -57 -385 -124 -112 -31 -295 -121 -493 -241 -256 -156 -341
-202 -516 -281 l-173 -78 -93 -95 c-51 -53 -156 -168 -233 -256 -112 -126
-289 -299 -344 -335 -4 -3 -21 -33 -39 -67 -57 -114 -132 -179 -366 -318 -120
-71 -154 -98 -236 -182 -97 -99 -196 -219 -238 -287 -35 -57 -36 -36 -2 33 49
96 37 93 -39 -9 -94 -129 -120 -182 -120 -250 0 -30 -7 -100 -15 -155 -8 -55
-15 -111 -15 -124 0 -23 2 -22 34 15 44 51 54 41 16 -16 -33 -49 -38 -78 -16
-86 13 -5 141 57 355 171 57 31 106 54 108 51 10 -9 -30 -112 -81 -211 -28
-55 -93 -163 -143 -240 -50 -77 -128 -211 -173 -298 -76 -147 -82 -161 -78
-209 3 -51 2 -52 -35 -74 -36 -20 -96 -99 -84 -110 5 -5 174 80 432 214 318
167 644 281 769 270 l36 -3 -32 -48 c-17 -26 -28 -50 -25 -53 3 -4 55 29 114
73 264 194 278 202 356 215 39 7 77 18 82 25 6 7 39 19 74 25 63 12 64 12 85
-14 16 -20 34 -28 76 -33 30 -4 59 -10 64 -12 4 -3 -15 -19 -43 -35 l-51 -30
0 -68 c0 -149 -79 -258 -247 -342 -49 -25 -96 -47 -104 -50 -69 -25 187 -12
351 18 116 20 258 60 348 95 41 16 76 28 79 26 7 -8 -45 -137 -78 -193 -72
-119 -197 -245 -384 -386 -33 -24 -169 -117 -302 -206 -286 -191 -299 -202
-307 -244 -3 -18 -30 -80 -59 -138 -216 -429 -736 -1037 -1036 -1211 -55 -32
-59 -37 -65 -78 -8 -57 -8 -265 1 -314 4 -30 9 -37 22 -32 62 25 207 47 301
47 168 0 291 -51 413 -170 81 -79 134 -148 286 -370 l132 -194 3 -124 c1 -68
5 -127 9 -130 16 -16 83 12 148 61 71 54 98 68 82 43 -4 -7 -24 -38 -44 -68
-98 -149 -147 -373 -119 -549 7 -45 16 -81 20 -81 10 0 110 91 301 272 79 76
178 164 219 197 108 86 207 133 238 112 22 -13 -5 -56 -102 -158 -46 -50 -92
-105 -100 -122 -16 -30 -16 -31 6 -36 51 -11 162 -25 331 -40 97 -9 189 -20
203 -24 l25 -6 -30 -43 c-28 -38 -65 -66 -171 -130 -19 -12 -30 -22 -24 -22
29 0 433 85 528 111 294 83 452 194 519 367 l17 42 -29 0 c-16 0 -45 7 -65 15
-45 19 -87 11 -225 -45 -56 -23 -116 -40 -138 -40 -42 0 -96 28 -113 59 -6 11
-70 61 -144 111 -278 188 -346 313 -285 530 104 379 566 909 1148 1318 473
332 604 435 740 579 51 53 93 94 95 92 2 -2 8 -38 15 -79 29 -184 133 -593
221 -865 139 -433 276 -732 395 -863 l49 -55 45 49 c107 118 242 361 344 619
59 151 160 455 198 600 18 71 25 84 30 65 8 -30 10 -26 43 95 71 262 182 774
276 1275 28 151 67 352 86 445 78 391 99 646 98 1215 0 240 -5 513 -12 610 -7
96 -17 254 -22 350 -16 276 -103 1103 -160 1510 -16 113 -32 228 -35 255 -6
49 -26 164 -81 450 -14 77 -42 208 -61 290 -19 83 -44 188 -54 235 -42 187
-185 651 -271 875 -160 421 -374 809 -541 982 -194 201 -511 343 -887 398
-192 28 -380 36 -535 25z m178 -107 c-29 -2 -78 -2 -110 0 -32 2 -8 3 52 3 61
0 87 -1 58 -3z m-225 -10 c-16 -2 -40 -2 -55 0 -16 2 -3 4 27 4 30 0 43 -2 28
-4z m395 0 c-13 -2 -35 -2 -50 0 -16 2 -5 4 22 4 28 0 40 -2 28 -4z m-505 -10
c-10 -2 -26 -2 -35 0 -10 3 -2 5 17 5 19 0 27 -2 18 -5z m590 0 c-10 -2 -26
-2 -35 0 -10 3 -2 5 17 5 19 0 27 -2 18 -5z m-655 -10 c-7 -2 -21 -2 -30 0
-10 3 -4 5 12 5 17 0 24 -2 18 -5z m720 0 c-7 -2 -19 -2 -25 0 -7 3 -2 5 12 5
14 0 19 -2 13 -5z m-780 -10 c-7 -2 -21 -2 -30 0 -10 3 -4 5 12 5 17 0 24 -2
18 -5z m844 1 c-3 -3 -12 -4 -19 -1 -8 3 -5 6 6 6 11 1 17 -2 13 -5z m-900
-10 c-3 -3 -12 -4 -19 -1 -8 3 -5 6 6 6 11 1 17 -2 13 -5z m950 0 c-3 -3 -12
-4 -19 -1 -8 3 -5 6 6 6 11 1 17 -2 13 -5z m-994 -11 c-7 -2 -19 -2 -25 0 -7
3 -2 5 12 5 14 0 19 -2 13 -5z m-146 -39 c-3 -3 -12 -4 -19 -1 -8 3 -5 6 6 6
11 1 17 -2 13 -5z m-47 -14 c-8 -5 -19 -10 -25 -10 -5 0 -3 5 5 10 8 5 20 10
25 10 6 0 3 -5 -5 -10z m-80 -30 c-8 -5 -19 -10 -25 -10 -5 0 -3 5 5 10 8 5
20 10 25 10 6 0 3 -5 -5 -10z m-81 -34 c-10 -9 -89 -46 -89 -41 0 6 72 44 84
45 5 0 7 -2 5 -4z m-269 -160 c0 -2 -8 -10 -17 -17 -16 -13 -17 -12 -4 4 13
16 21 21 21 13z m-40 -29 c0 -2 -12 -14 -27 -28 l-28 -24 24 28 c23 25 31 32
31 24z m-110 -110 c0 -2 -10 -12 -22 -23 l-23 -19 19 23 c18 21 26 27 26 19z
m-50 -61 c0 -2 -8 -10 -17 -17 -16 -13 -17 -12 -4 4 13 16 21 21 21 13z m3060
-701 c0 -5 -5 -3 -10 5 -5 8 -10 20 -10 25 0 6 5 3 10 -5 5 -8 10 -19 10 -25z
m80 -200 c0 -5 -5 -3 -10 5 -5 8 -10 20 -10 25 0 6 5 3 10 -5 5 -8 10 -19 10
-25z m127 -387 c-3 -8 -6 -5 -6 6 -1 11 2 17 5 13 3 -3 4 -12 1 -19z m30 -100
c-3 -8 -6 -5 -6 6 -1 11 2 17 5 13 3 -3 4 -12 1 -19z m50 -180 c-3 -8 -6 -5
-6 6 -1 11 2 17 5 13 3 -3 4 -12 1 -19z m40 -150 c-3 -8 -6 -5 -6 6 -1 11 2
17 5 13 3 -3 4 -12 1 -19z m10 -40 c-3 -8 -6 -5 -6 6 -1 11 2 17 5 13 3 -3 4
-12 1 -19z m30 -130 c-3 -8 -6 -5 -6 6 -1 11 2 17 5 13 3 -3 4 -12 1 -19z m10
-40 c-3 -8 -6 -5 -6 6 -1 11 2 17 5 13 3 -3 4 -12 1 -19z m20 -90 c-3 -8 -6
-5 -6 6 -1 11 2 17 5 13 3 -3 4 -12 1 -19z m10 -50 c-3 -8 -6 -5 -6 6 -1 11 2
17 5 13 3 -3 4 -12 1 -19z m10 -40 c-3 -8 -6 -5 -6 6 -1 11 2 17 5 13 3 -3 4
-12 1 -19z m10 -50 c-3 -8 -6 -5 -6 6 -1 11 2 17 5 13 3 -3 4 -12 1 -19z m10
-50 c-3 -8 -6 -5 -6 6 -1 11 2 17 5 13 3 -3 4 -12 1 -19z m10 -50 c-3 -8 -6
-5 -6 6 -1 11 2 17 5 13 3 -3 4 -12 1 -19z m10 -50 c-3 -8 -6 -5 -6 6 -1 11 2
17 5 13 3 -3 4 -12 1 -19z m10 -60 c-3 -7 -5 -2 -5 12 0 14 2 19 5 13 2 -7 2
-19 0 -25z m10 -50 c-3 -7 -5 -2 -5 12 0 14 2 19 5 13 2 -7 2 -19 0 -25z m10
-60 c-3 -7 -5 -2 -5 12 0 14 2 19 5 13 2 -7 2 -19 0 -25z m10 -60 c-3 -7 -5
-2 -5 12 0 14 2 19 5 13 2 -7 2 -19 0 -25z m10 -50 c-3 -8 -6 -5 -6 6 -1 11 2
17 5 13 3 -3 4 -12 1 -19z m10 -70 c-3 -7 -5 -2 -5 12 0 14 2 19 5 13 2 -7 2
-19 0 -25z m10 -60 c-3 -7 -5 -2 -5 12 0 14 2 19 5 13 2 -7 2 -19 0 -25z m10
-60 c-3 -7 -5 -2 -5 12 0 14 2 19 5 13 2 -7 2 -19 0 -25z m10 -70 c-3 -7 -5
-2 -5 12 0 14 2 19 5 13 2 -7 2 -19 0 -25z m10 -70 c-3 -7 -5 -2 -5 12 0 14 2
19 5 13 2 -7 2 -19 0 -25z m10 -75 c-3 -10 -5 -4 -5 12 0 17 2 24 5 18 2 -7 2
-21 0 -30z m10 -80 c-3 -10 -5 -2 -5 17 0 19 2 27 5 18 2 -10 2 -26 0 -35z
m10 -80 c-3 -10 -5 -2 -5 17 0 19 2 27 5 18 2 -10 2 -26 0 -35z m10 -80 c-3
-10 -5 -4 -5 12 0 17 2 24 5 18 2 -7 2 -21 0 -30z m10 -90 c-3 -10 -5 -2 -5
17 0 19 2 27 5 18 2 -10 2 -26 0 -35z m10 -80 c-3 -10 -5 -2 -5 17 0 19 2 27
5 18 2 -10 2 -26 0 -35z m10 -90 c-3 -10 -5 -2 -5 17 0 19 2 27 5 18 2 -10 2
-26 0 -35z m10 -90 c-3 -10 -5 -2 -5 17 0 19 2 27 5 18 2 -10 2 -26 0 -35z
m10 -85 c-2 -13 -4 -5 -4 17 -1 22 1 32 4 23 2 -10 2 -28 0 -40z m10 -95 c-3
-10 -5 -2 -5 17 0 19 2 27 5 18 2 -10 2 -26 0 -35z m10 -95 c-2 -13 -4 -5 -4
17 -1 22 1 32 4 23 2 -10 2 -28 0 -40z m10 -100 c-2 -13 -4 -5 -4 17 -1 22 1
32 4 23 2 -10 2 -28 0 -40z m10 -100 c-2 -13 -4 -5 -4 17 -1 22 1 32 4 23 2
-10 2 -28 0 -40z m10 -110 c-2 -13 -4 -3 -4 22 0 25 2 35 4 23 2 -13 2 -33 0
-45z m10 -115 c-2 -16 -4 -5 -4 22 0 28 2 40 4 28 2 -13 2 -35 0 -50z m10
-120 c-2 -16 -4 -5 -4 22 0 28 2 40 4 28 2 -13 2 -35 0 -50z m10 -140 c-2 -16
-4 -3 -4 27 0 30 2 43 4 28 2 -16 2 -40 0 -55z m10 -155 c-2 -18 -4 -4 -4 32
0 36 2 50 4 33 2 -18 2 -48 0 -65z m10 -180 c-2 -24 -4 -7 -4 37 0 44 2 63 4
43 2 -21 2 -57 0 -80z m10 -270 c-2 -35 -3 -9 -3 57 0 66 1 94 3 63 2 -32 2
-86 0 -120z m10 -330 c-2 -24 -4 -7 -4 37 0 44 2 63 4 43 2 -21 2 -57 0 -80z
m-10 -340 c-2 -29 -3 -6 -3 52 0 58 1 81 3 53 2 -29 2 -77 0 -105z m-10 -180
c-2 -18 -4 -6 -4 27 0 33 2 48 4 33 2 -15 2 -42 0 -60z m-10 -120 c-2 -13 -4
-3 -4 22 0 25 2 35 4 23 2 -13 2 -33 0 -45z m-10 -100 c-2 -13 -4 -5 -4 17 -1
22 1 32 4 23 2 -10 2 -28 0 -40z m-10 -85 c-3 -10 -5 -2 -5 17 0 19 2 27 5 18
2 -10 2 -26 0 -35z m-10 -70 c-3 -10 -5 -4 -5 12 0 17 2 24 5 18 2 -7 2 -21 0
-30z m-10 -65 c-3 -7 -5 -2 -5 12 0 14 2 19 5 13 2 -7 2 -19 0 -25z m-10 -60
c-3 -7 -5 -2 -5 12 0 14 2 19 5 13 2 -7 2 -19 0 -25z m-10 -60 c-3 -7 -5 -2
-5 12 0 14 2 19 5 13 2 -7 2 -19 0 -25z m-10 -50 c-3 -7 -5 -2 -5 12 0 14 2
19 5 13 2 -7 2 -19 0 -25z m-10 -50 c-3 -8 -6 -5 -6 6 -1 11 2 17 5 13 3 -3 4
-12 1 -19z m-10 -50 c-3 -8 -6 -5 -6 6 -1 11 2 17 5 13 3 -3 4 -12 1 -19z
m-10 -50 c-3 -8 -6 -5 -6 6 -1 11 2 17 5 13 3 -3 4 -12 1 -19z m-10 -50 c-3
-8 -6 -5 -6 6 -1 11 2 17 5 13 3 -3 4 -12 1 -19z m-10 -50 c-3 -8 -6 -5 -6 6
-1 11 2 17 5 13 3 -3 4 -12 1 -19z m-10 -60 c-3 -7 -5 -2 -5 12 0 14 2 19 5
13 2 -7 2 -19 0 -25z m-10 -50 c-3 -8 -6 -5 -6 6 -1 11 2 17 5 13 3 -3 4 -12
1 -19z m-10 -50 c-3 -8 -6 -5 -6 6 -1 11 2 17 5 13 3 -3 4 -12 1 -19z m-10
-50 c-3 -8 -6 -5 -6 6 -1 11 2 17 5 13 3 -3 4 -12 1 -19z m-10 -60 c-3 -7 -5
-2 -5 12 0 14 2 19 5 13 2 -7 2 -19 0 -25z m-10 -50 c-3 -8 -6 -5 -6 6 -1 11
2 17 5 13 3 -3 4 -12 1 -19z m-10 -50 c-3 -8 -6 -5 -6 6 -1 11 2 17 5 13 3 -3
4 -12 1 -19z m-10 -50 c-3 -8 -6 -5 -6 6 -1 11 2 17 5 13 3 -3 4 -12 1 -19z
m-10 -60 c-3 -7 -5 -2 -5 12 0 14 2 19 5 13 2 -7 2 -19 0 -25z m-10 -50 c-3
-8 -6 -5 -6 6 -1 11 2 17 5 13 3 -3 4 -12 1 -19z m-10 -50 c-3 -8 -6 -5 -6 6
-1 11 2 17 5 13 3 -3 4 -12 1 -19z m-10 -50 c-3 -8 -6 -5 -6 6 -1 11 2 17 5
13 3 -3 4 -12 1 -19z m-10 -50 c-3 -8 -6 -5 -6 6 -1 11 2 17 5 13 3 -3 4 -12
1 -19z m-10 -50 c-3 -8 -6 -5 -6 6 -1 11 2 17 5 13 3 -3 4 -12 1 -19z m-20
-90 c-3 -8 -6 -5 -6 6 -1 11 2 17 5 13 3 -3 4 -12 1 -19z m-10 -50 c-3 -8 -6
-5 -6 6 -1 11 2 17 5 13 3 -3 4 -12 1 -19z m-20 -90 c-3 -8 -6 -5 -6 6 -1 11
2 17 5 13 3 -3 4 -12 1 -19z m-10 -50 c-3 -8 -6 -5 -6 6 -1 11 2 17 5 13 3 -3
4 -12 1 -19z m-10 -40 c-3 -8 -6 -5 -6 6 -1 11 2 17 5 13 3 -3 4 -12 1 -19z
m-20 -90 c-3 -8 -6 -5 -6 6 -1 11 2 17 5 13 3 -3 4 -12 1 -19z"/>
<path d="M33805 44512 c-110 -256 -609 -1251 -918 -1832 -212 -398 -274 -492
-626 -950 -412 -535 -550 -773 -687 -1190 -12 -37 14 9 30 53 10 27 20 47 22
45 2 -2 6 -100 9 -218 8 -335 33 -631 55 -653 10 -11 39 30 88 128 22 44 48
91 59 104 l20 24 85 -144 c47 -79 96 -163 109 -186 13 -24 27 -43 30 -43 4 0
9 14 13 32 3 17 29 88 57 157 28 69 59 158 69 196 l18 70 5 -600 c5 -642 11
-746 62 -1018 33 -175 49 -235 59 -219 20 32 83 239 146 477 102 384 122 448
134 434 2 -2 21 -49 44 -104 23 -56 43 -93 46 -85 59 171 68 270 76 885 7 528
9 571 34 752 57 417 143 719 333 1172 35 84 63 155 61 156 -2 2 -80 -103 -174
-234 -210 -290 -344 -459 -472 -593 -53 -57 -123 -132 -156 -168 l-59 -65 27
47 c14 25 62 113 107 195 45 81 96 173 114 203 31 52 643 1141 881 1568 67
120 132 252 159 324 l46 121 -11 166 c-21 308 15 631 106 939 18 64 32 117 31
118 -2 2 -16 -27 -32 -64z"/>
<path d="M38550 36625 c-239 -233 -467 -336 -800 -359 -47 -4 -116 -9 -155
-12 -84 -7 -80 3 21 46 81 36 106 37 -246 -15 l-225 -33 175 -1 175 -2 -45
-24 c-93 -50 -198 -77 -302 -78 -54 0 -98 -2 -98 -4 0 -3 8 -17 19 -31 10 -15
47 -83 81 -152 34 -69 76 -144 91 -167 l29 -42 -82 -43 c-404 -210 -392 -669
33 -1293 177 -260 446 -554 689 -751 81 -66 219 -159 250 -169 17 -5 20 -16
20 -68 0 -34 7 -118 15 -187 8 -69 16 -150 17 -180 l3 -55 110 1 c236 3 399
102 505 304 82 159 118 350 126 665 6 209 -6 558 -18 571 -9 9 -257 -24 -321
-42 -61 -18 -124 -53 -172 -96 -19 -16 -35 -28 -35 -24 0 3 14 29 31 58 180
306 349 770 415 1143 22 127 30 370 14 478 -6 48 -15 87 -19 87 -14 0 -165
-87 -223 -128 l-56 -41 38 82 c55 116 81 221 87 358 5 107 -7 250 -25 299 -6
16 -26 0 -122 -95z"/>
<path d="M15885 36510 c-290 -45 -595 -221 -811 -467 -136 -156 -316 -455
-364 -607 -7 -22 -33 -69 -57 -105 -92 -134 -166 -318 -194 -485 -18 -104 -6
-417 20 -534 76 -345 249 -654 474 -847 196 -169 410 -244 614 -216 217 30
418 137 791 418 136 103 162 119 245 147 115 38 189 82 280 166 147 135 261
332 351 602 153 462 137 882 -46 1241 -171 335 -462 567 -829 662 -86 23 -130
28 -259 30 -85 2 -182 0 -215 -5z m135 -510 c8 -5 26 -20 40 -34 28 -31 38
-117 22 -203 -10 -55 -5 -63 38 -63 45 0 134 -44 180 -89 84 -81 78 -166 -16
-211 -52 -26 -122 -30 -256 -15 -119 12 -142 0 -283 -150 -63 -68 -136 -135
-160 -150 -25 -14 -45 -27 -45 -28 0 -2 -9 -45 -21 -97 -34 -157 -59 -346 -69
-520 -5 -101 -15 -182 -24 -208 -41 -115 -125 -231 -183 -253 -19 -7 -41 -5
-82 6 -46 14 -67 28 -121 83 -53 54 -79 94 -137 207 -102 200 -124 281 -130
475 -5 132 -2 172 16 263 27 134 43 182 92 278 76 145 184 255 366 369 54 34
150 97 213 141 244 169 466 247 560 199z m1012 -261 c20 -5 58 -24 84 -42 108
-73 138 -208 77 -340 -79 -168 -222 -237 -359 -173 -103 48 -165 141 -165 248
0 74 45 206 86 250 64 69 159 89 277 57z"/>
<path d="M25560 34759 c-203 -21 -419 -83 -591 -170 -154 -77 -271 -161 -389
-280 -164 -166 -393 -407 -455 -480 l-55 -67 -81 -12 c-87 -14 -225 -8 -293
11 -44 12 -33 21 -149 -115 -37 -44 -110 -143 -162 -221 -150 -226 -255 -308
-518 -400 -129 -45 -167 -92 -167 -204 0 -127 54 -208 223 -339 164 -126 199
-175 233 -318 11 -49 14 -92 10 -147 -5 -77 -5 -78 17 -72 47 14 127 76 173
135 l48 61 13 -51 c31 -122 91 -208 216 -311 106 -87 174 -131 292 -189 259
-127 622 -220 1045 -266 198 -21 719 -30 940 -15 355 24 710 74 853 122 236
78 618 315 932 578 132 110 428 409 532 538 164 202 284 405 344 583 26 76 33
116 37 203 4 97 3 107 -13 107 -10 0 -72 43 -137 96 -1106 887 -2102 1308
-2898 1223z m716 -430 c81 -14 128 -47 149 -103 17 -44 17 -45 -9 -103 -39
-84 -118 -182 -253 -314 -336 -328 -677 -514 -798 -435 -25 17 -26 16 -40 -18
-60 -143 -91 -337 -82 -521 14 -316 131 -580 345 -787 176 -170 361 -263 637
-319 33 -7 52 -14 43 -17 -23 -5 -23 -7 4 -42 13 -19 18 -33 12 -39 -27 -24
-343 -68 -597 -81 -426 -24 -934 41 -1117 142 -91 50 -184 124 -268 213 -97
102 -170 238 -203 380 -29 123 -29 311 0 451 76 368 294 741 617 1054 253 245
514 404 782 477 97 26 146 28 400 21 20 -1 63 7 95 16 112 33 198 41 283 25z"/>
<path d="M14065 30565 c-712 -81 -1172 -327 -1437 -768 -44 -73 -128 -269
-128 -298 0 -7 14 0 31 17 l31 29 -35 -70 c-121 -245 -207 -595 -207 -844 0
-53 -7 -97 -21 -137 -31 -92 -56 -203 -89 -407 -17 -110 -57 -292 -95 -435
-149 -569 -258 -1103 -312 -1527 -22 -177 -25 -547 -4 -650 35 -178 116 -376
226 -550 31 -49 117 -175 190 -280 118 -169 265 -396 265 -410 0 -3 -15 -5
-32 -6 l-33 -1 43 -15 c48 -17 65 -44 140 -225 75 -179 82 -222 112 -709 22
-361 101 -526 362 -755 62 -55 219 -181 348 -281 309 -238 328 -255 530 -483
209 -235 400 -427 495 -498 74 -55 195 -122 256 -141 26 -8 55 -34 101 -89 67
-80 176 -182 363 -342 61 -51 162 -145 226 -207 l116 -115 35 49 c20 26 61 93
92 148 131 236 203 266 501 210 206 -40 292 -50 309 -36 8 7 22 34 32 62 26
72 54 94 117 94 42 0 74 -10 167 -55 108 -51 119 -54 183 -52 95 3 189 19 199
34 4 7 8 29 8 48 0 95 89 305 173 411 86 108 206 178 344 201 34 6 60 15 57
19 -3 5 -1 9 5 9 5 0 13 -4 16 -10 3 -5 25 -10 48 -10 48 0 202 -31 262 -53
38 -13 40 -17 48 -67 19 -133 56 -157 264 -167 76 -3 156 -12 178 -20 21 -7
95 -23 163 -33 173 -28 232 -64 282 -169 27 -58 29 -58 114 -12 73 39 90 68
95 159 l3 77 50 39 c69 54 160 163 298 356 65 91 126 172 136 181 39 32 221
21 352 -22 57 -19 203 -106 217 -129 3 -6 -10 -24 -29 -41 -20 -17 -50 -48
-67 -70 l-30 -39 74 -83 c41 -46 106 -126 145 -179 38 -52 82 -105 97 -116 52
-41 88 -44 479 -37 319 6 386 5 481 -10 198 -29 369 -82 491 -150 36 -20 64
-31 64 -24 0 12 37 10 192 -7 75 -9 84 9 40 71 -17 25 -27 47 -22 50 5 3 11 1
15 -5 12 -20 85 -50 121 -50 32 0 46 9 113 75 42 41 97 83 122 94 27 12 95 26
167 35 143 16 176 32 225 111 28 46 34 65 36 120 2 62 0 68 -28 94 -33 31 -96
51 -160 51 -22 0 -42 4 -45 9 -3 5 45 57 107 117 403 388 528 532 612 699 99
197 111 369 38 552 l-25 63 76 72 c42 40 76 78 76 85 0 18 -68 94 -129 143
-391 314 -1233 288 -2436 -76 -115 -35 -343 -108 -505 -163 -433 -146 -753
-221 -1069 -251 -139 -14 -149 -12 -405 51 -198 48 -357 111 -741 293 -165 79
-351 164 -413 191 -106 45 -117 52 -190 130 -197 208 -374 466 -489 712 -66
143 -65 136 -38 175 20 29 28 34 52 31 76 -12 170 46 205 124 32 72 -5 106
-134 123 -40 5 -88 14 -106 21 -41 14 -79 5 -114 -28 -21 -20 -29 -23 -32 -12
-42 122 -111 444 -121 565 l-6 69 39 26 c21 14 55 46 75 70 37 46 107 157 107
171 0 14 -133 48 -191 48 l-59 0 0 58 c1 141 28 432 41 432 16 0 114 -86 137
-120 12 -19 30 -58 38 -88 l16 -54 62 6 c33 4 91 18 128 30 75 27 238 112 238
126 0 16 -101 90 -170 125 -37 18 -113 50 -171 70 -90 32 -112 36 -161 30 -32
-3 -58 -2 -58 2 0 4 44 29 98 55 54 26 116 63 138 82 l39 34 -20 37 c-28 53
-90 112 -146 138 -27 12 -49 27 -49 33 0 23 77 196 108 243 8 10 35 -2 130
-58 129 -76 161 -84 227 -56 45 18 53 40 28 68 -24 26 -93 129 -93 138 0 4 28
12 63 19 95 18 94 15 67 109 -23 79 -25 81 -54 81 -46 0 -99 -31 -117 -68 -12
-24 -18 -28 -23 -17 -3 10 -19 15 -46 15 -22 0 -40 2 -40 4 0 9 151 241 158
243 4 2 20 -21 36 -50 84 -155 232 -339 282 -351 34 -9 91 10 104 34 29 54 39
527 20 935 l-8 190 43 96 c142 313 205 543 205 752 0 135 -18 216 -67 310 -63
119 -171 213 -318 276 -53 22 -75 39 -122 96 -194 231 -526 428 -1026 611
-144 53 -642 212 -792 253 -218 61 -550 123 -835 157 -187 22 -779 28 -945 9z"/>
<path d="M19527 26956 c-21 -8 -46 -21 -56 -30 -10 -9 -29 -16 -43 -16 -38 0
-87 -20 -98 -40 -19 -35 -12 -61 20 -73 17 -6 30 -14 30 -18 0 -3 -13 -25 -30
-47 -37 -51 -38 -76 -5 -98 49 -32 102 -5 161 80 17 23 28 28 67 30 55 2 87
23 139 92 43 56 49 97 17 114 -34 19 -159 22 -202 6z"/>
<path d="M18683 26600 c-18 -11 -33 -28 -33 -37 1 -34 94 -197 121 -212 36
-20 105 -1 121 34 17 37 -24 163 -57 175 -14 5 -25 14 -25 19 0 20 -33 41 -63
41 -18 0 -47 -9 -64 -20z"/>
<path d="M17987 26200 c-44 -13 -57 -29 -57 -71 0 -31 -5 -40 -27 -51 -31 -16
-34 -45 -8 -85 18 -27 76 -31 130 -9 46 20 55 42 55 140 l0 86 -32 -1 c-18 0
-46 -5 -61 -9z"/>
<path d="M19210 25544 c-36 -7 -114 -17 -174 -20 -89 -6 -113 -11 -135 -29
-14 -11 -48 -35 -76 -53 -107 -68 -144 -124 -89 -138 38 -10 237 3 314 20 112
24 147 35 174 57 25 20 36 59 16 59 -5 0 -10 4 -10 9 0 5 21 12 46 16 42 6 84
33 84 54 0 19 -32 41 -58 40 -15 -1 -56 -7 -92 -15z"/>
<path d="M18238 25357 c-18 -12 -53 -28 -77 -37 -51 -17 -72 -43 -53 -62 9 -9
26 -9 74 -1 73 13 82 7 92 -58 4 -23 17 -51 32 -66 23 -23 31 -25 87 -21 39 3
85 15 125 32 74 34 76 44 33 156 l-30 75 -125 1 c-110 2 -128 -1 -158 -19z"/>
<path d="M17430 25343 c-25 -9 -60 -46 -60 -63 0 -9 14 -29 30 -45 34 -32 46
-69 55 -165 12 -124 37 -170 89 -170 44 0 88 30 137 95 32 43 43 67 47 104 6
65 -16 103 -86 148 -31 20 -80 51 -108 70 -49 32 -72 38 -104 26z"/>
<path d="M17937 24545 c-21 -7 -46 -19 -55 -27 -9 -8 -36 -20 -60 -27 -24 -7
-49 -22 -58 -35 -8 -13 -32 -36 -53 -50 -51 -36 -76 -91 -67 -153 3 -26 12
-51 19 -56 17 -12 203 0 260 17 63 19 115 60 134 104 14 33 13 43 -8 126 -12
50 -25 94 -28 97 -14 15 -49 17 -84 4z"/>
<path d="M18748 24384 c-4 -3 -36 -7 -73 -9 -100 -5 -156 -35 -119 -65 25 -22
15 -44 -26 -62 -24 -10 -40 -23 -40 -34 0 -14 8 -16 50 -12 40 4 53 1 66 -13
27 -30 101 -25 187 12 39 16 80 37 89 46 25 23 23 75 -4 101 -36 33 -112 55
-130 36z"/>
<path d="M18138 23853 c-43 -17 -46 -29 -18 -75 l20 -33 -23 -18 -22 -17 43
-41 c41 -39 46 -41 88 -35 50 6 103 31 110 50 3 8 -16 53 -41 100 -46 84 -48
86 -83 85 -21 0 -54 -7 -74 -16z"/>
<path d="M40830 22017 c0 -26 -158 -332 -235 -455 -500 -803 -1487 -1797
-2795 -2817 -351 -274 -967 -724 -1311 -959 l-115 -79 -225 -370 c-123 -204
-225 -374 -227 -378 -2 -3 74 -33 167 -65 94 -33 171 -63 171 -69 0 -5 -47
-136 -105 -290 -57 -153 -102 -281 -100 -283 8 -8 246 93 385 164 324 164 688
406 994 661 55 46 101 81 104 79 5 -6 -187 -457 -299 -703 -90 -197 -169 -357
-203 -412 -12 -20 -64 -126 -115 -236 -156 -334 -337 -684 -414 -800 -299
-448 -320 -474 -567 -695 -96 -85 -201 -189 -233 -230 -102 -128 -152 -256
-165 -430 l-8 -89 36 27 c101 77 339 243 528 367 1049 690 1212 809 1609 1177
439 407 779 849 1014 1318 38 77 117 210 175 297 332 494 652 851 929 1033 44
29 71 50 60 47 -47 -14 -496 -89 -501 -84 -3 2 15 33 39 68 118 170 282 482
357 679 93 244 129 411 137 628 3 89 2 162 -3 162 -4 0 -132 -47 -284 -105
-152 -58 -279 -105 -283 -105 -13 0 -7 52 19 168 35 155 73 262 149 417 74
150 138 251 224 350 258 297 423 511 604 785 306 465 465 840 493 1163 3 42 4
77 0 77 -3 0 -6 -6 -6 -13z"/>
</g>
</svg>
